<?xml version="1.0" encoding="utf-8"?>
<!-- Generator: Adobe Illustrator 19.2.0, SVG Export Plug-In . SVG Version: 6.00 Build 0)  -->
<svg version="1.1" xmlns="http://www.w3.org/2000/svg" xmlns:xlink="http://www.w3.org/1999/xlink" x="0px" y="0px"
	 viewBox="0 0 235.4 141.5" style="enable-background:new 0 0 235.4 141.5;" xml:space="preserve">
<style type="text/css">
	.st0{display:none;}
	.st1{display:inline;}
	.st2{fill:#F2CFD0;}
</style>
<g id="Layer_1" class="st0">
	<g id="FB9ar7_1_" class="st1">
		
			<image style="overflow:visible;" width="450" height="300" id="FB9ar7_2_" xlink:href="2C1A7364436D8037.png"  transform="matrix(1 0 0 1 -107.2112 -2.5441)">
		</image>
	</g>
	<g id="FB9ar7_3_" class="st1">
		
			<image style="overflow:visible;" width="450" height="300" id="FB9ar7_4_" xlink:href="2C1A7364436D8032.png"  transform="matrix(1 0 0 1 250.3831 -53.2478)">
		</image>
	</g>
</g>
<g id="Layer_2">
	<g id="bYzAbP_1_">
		<g>
			<path class="st2" d="M62.8,49.6c-11,7.7-11,22.8,2,29.9c-2.3,6.7-5.7,12.7-11,17.4c-2.6,2.3-5.9,3-8.9,1.6
				c-6.2-2.9-12.2-2.8-18.4,0.1c-2.9,1.3-6,0.7-8.4-1.5c-9.7-8.4-17.1-26.8-13-40.5c2.6-8.6,9.7-14.2,17.9-13.9
				c1.9,0.1,4,0.4,5.6,1.2c4.3,2.2,8.3,2,12.7,0c4.2-2,8.7-2.1,13.2-0.6C57.8,44.4,60.6,46.4,62.8,49.6z"/>
			<path class="st2" d="M85.2,29.7c0.1-0.1,0.2-0.2,0.3-0.2c10.1,0.1,20.2-0.5,30.2,0.5c11.3,1.1,18.2,10.7,17.9,23
				c-0.2,11.4-7.8,20.3-18.8,21.5c-5.1,0.6-10.3,0.4-15.4,0.5c-1.1,0-2.3,0-3.7,0c0,7.9,0,15.6,0,23.4c-3.6,0-6.9,0-10.5,0
				C85.2,75.5,85.2,52.6,85.2,29.7z M95.9,38.9c0,8.9,0,17.9,0,27.2c4.2,0,8.1,0,12.1,0c1.4,0,2.8-0.2,4.2-0.4
				c6.6-1.2,10.5-6.1,10.6-13.3c0.1-7.2-3.6-12.5-10.4-13.3C107,38.3,101.5,38.9,95.9,38.9z"/>
			<path class="st2" d="M168.8,68.8c1-6.7-0.8-10.4-5.5-11.9c-6.1-2-11.7,0.1-14.4,5.1c-0.3,0.6-1.2,1.2-1.9,1.3
				c-2.6,0.1-5.1,0.1-8.6,0.1c1.1-2.8,1.7-5.4,3.1-7.5c2.8-4.4,7.1-6.5,12.1-7.4c5.8-1.1,11.5-0.8,16.9,1.8
				c5.4,2.6,8.7,6.9,8.8,12.9c0.2,11.4,0.1,22.9,0.1,34.3c0,0.3-0.1,0.7-0.2,1.1c-3.2,0-6.2,0-9.6,0c0-2.5,0-4.9,0-7.3
				c-3.4,4-7.3,6.7-12.3,7.6c-4.6,0.8-9,0.4-13.2-1.8c-5.2-2.8-7.7-7.3-7.6-13c0.1-5.8,3-10.2,8.5-11.9c4.7-1.5,9.8-2,14.8-2.7
				C162.7,68.9,165.7,68.9,168.8,68.8z M168.8,75.6c-5.8,0.7-11.5,1.1-17.1,2.2c-3.4,0.7-5,3.4-4.8,6.4c0.1,2.8,1.9,5.1,5.1,6.1
				C159.3,92.8,170.9,88.8,168.8,75.6z"/>
			<path class="st2" d="M184.1,48.5c3.5,0,6.6-0.1,9.7,0.1c0.8,0.1,1.8,1.2,2.1,2.1c3.8,11.8,7.4,23.6,11.1,35.5
				c0.3,0.9,0.6,1.7,1.4,2.6c1.1-3.7,2.3-7.3,3.4-11c2.7-8.8,5.5-17.6,8.1-26.4c0.7-2.3,1.7-3.1,4.1-2.9c2.4,0.2,4.9,0.1,7.6,0.1
				c-0.3,1.1-0.5,1.9-0.8,2.6c-6,16.8-12,33.7-18,50.5c-1,2.7-2.2,5.4-3.7,7.9c-2.9,5.1-7.4,7.7-13.4,7.7c-2.1,0-4.2,0-6.5,0
				c0-2.7,0-5.3,0-7.9c0.5-0.1,0.9-0.2,1.3-0.2c7,0,10.1-2.5,11.4-9.5c0.2-0.9-0.2-2.1-0.5-3C196,81.4,190.5,66.2,185,51.1
				C184.8,50.3,184.5,49.6,184.1,48.5z"/>
			<path class="st2" d="M48.9,24.3c1.9,7.9-6.5,17.7-14.5,16.9C33,33.5,40.5,24.8,48.9,24.3z"/>
		</g>
	</g>
</g>
</svg>
