<?xml version="1.0" encoding="utf-8"?>
<!-- Generator: Adobe Illustrator 19.2.0, SVG Export Plug-In . SVG Version: 6.00 Build 0)  -->
<svg version="1.1" xmlns="http://www.w3.org/2000/svg" xmlns:xlink="http://www.w3.org/1999/xlink" x="0px" y="0px"
	 viewBox="0 0 235.4 141.5" style="enable-background:new 0 0 235.4 141.5;" xml:space="preserve">
<style type="text/css">
	.st0{display:none;}
	.st1{display:inline;}
	.st2{fill:#F2CFD0;}
	.st3{fill:#E0432F;}
	.st4{fill:#4AA84D;}
	.st5{fill:#4D86F9;}
	.st6{fill:#F5BB01;}
</style>
<g id="Layer_1" class="st0">
	<g id="FB9ar7_1_" class="st1">
		
			<image style="overflow:visible;" width="450" height="300" id="FB9ar7_2_" xlink:href="DA08C880D9661ED0.png"  transform="matrix(1 0 0 1 -107.2112 -2.5441)">
		</image>
	</g>
	<g id="FB9ar7_3_" class="st1">
		
			<image style="overflow:visible;" width="450" height="300" id="FB9ar7_4_" xlink:href="DA08C880D9661ED1.png"  transform="matrix(1 0 0 1 250.3831 -53.2478)">
		</image>
	</g>
</g>
<g id="Layer_2">
	<g id="_x36_ttDYf_1_">
		<g>
			<path class="st2" d="M102.8,63.2c0-10.7,0-21.3,0-32c0-1.3,0.4-1.6,1.6-1.6c7.5,0.1,15-0.2,22.5,0.1c7.8,0.3,13.9,4.1,17.6,11
				c6.1,11.3-0.7,25.4-13.3,28.3c-2,0.4-3.9,0.6-5.9,0.6c-4.1,0-8.3,0-12.4,0c-1.1,0-1.4,0.3-1.4,1.4c0,8.1,0,16.3,0,24.4
				c0,1.2-0.3,1.5-1.5,1.5c-1.9-0.1-3.8-0.1-5.7,0c-1.2,0.1-1.5-0.3-1.5-1.5C102.8,84.7,102.8,74,102.8,63.2z M111.4,49.7
				c0,3.5,0,7.1,0,10.6c0,0.8,0.1,1.2,1,1.2c4.7,0,9.4,0.1,14.1-0.1c6.5-0.2,11.4-5.6,11.3-12c-0.1-6.2-5.4-11.3-11.8-11.4
				c-4.4,0-8.8,0-13.3-0.1c-1.2,0-1.4,0.4-1.4,1.5C111.4,42.9,111.4,46.3,111.4,49.7z"/>
			<path class="st2" d="M178.5,90.5c-1.6,2.2-3.4,4.1-5.8,5.6c-8.5,5.2-21.6,1.2-25.2-7.8c-3.3-8.2,0.7-16.8,9.3-19.7
				c7.2-2.4,14.4-2.2,21.4,0.8c0.2,0.1,0.3,0.1,0.6,0.3c0.4-3.7-0.5-6.9-3.3-9.3c-5.7-5-14.3-4.2-19.1,1.8c-0.7,0.9-1.1,0.9-2,0.3
				c-1.8-1.2-3.7-2.4-5.6-3.5c-0.7-0.4-0.8-0.8-0.3-1.5c3.8-4.9,8.8-7.4,14.8-7.9c4.9-0.4,9.8-0.1,14.3,2.3c5.7,3,8.7,7.7,9.2,14
				c0.5,5.3,0.1,10.6,0.2,15.9c0,4.6,0,9.1,0,13.7c0,1.1-0.3,1.4-1.4,1.4c-1.9-0.1-3.7-0.1-5.6,0c-1,0-1.4-0.2-1.3-1.3
				c0.1-1.6,0-3.3,0-5C178.8,90.6,178.7,90.5,178.5,90.5z M168.1,74c-3.2-0.1-6.2,0.5-8.9,2.3c-2.1,1.5-3.6,3.4-3.7,6
				c-0.2,3.8,2.3,6.8,6.5,7.9c7.5,2,16.4-4.2,17-12c0.1-0.9-0.3-1.4-1-1.8C174.9,74.6,171.6,74,168.1,74z"/>
			<path class="st2" d="M188.6,50.9c3,0,5.8,0,8.6,0c0.9,0,1,0.7,1.3,1.2c4.2,10.1,8.4,20.3,12.6,30.4c0.2,0.5,0.2,1,0.8,1.4
				c1.6-4,3.2-7.9,4.8-11.9c2.7-6.6,5.4-13.3,8-19.9c0.3-0.8,0.7-1.2,1.7-1.2c2.6,0.1,5.3,0,8.1,0c-0.8,1.8-1.5,3.6-2.3,5.3
				c-8.6,19.8-17.3,39.7-25.9,59.5c-0.4,1-0.9,1.4-2,1.4c-1.9-0.1-3.9,0-5.9,0c-1.6,0-1.6,0-1-1.4c3.2-6.8,6.3-13.7,9.5-20.5
				c0.4-0.9,0.4-1.6,0-2.5c-6-13.5-11.9-27-17.9-40.5C189,51.9,188.8,51.5,188.6,50.9z"/>
			<path class="st3" d="M5.1,45.7c2.7-5.7,6.7-10.2,11.7-14C30.9,21.3,51,22,64.2,33.4c0.9,0.8,1.1,1.2,0.1,2.1
				c-3.1,3-6.2,6.1-9.2,9.2c-0.5,0.5-0.8,0.8-1.6,0.1c-9.7-8.6-26.2-6.4-33.6,6.3c-0.8,1.4-1.4,3-2.1,4.5c-1.4-1.1-2.8-2.3-4.2-3.4
				C10.8,50,7.9,47.9,5.1,45.7z"/>
			<path class="st4" d="M65,92.2c-5.6,5.2-12.3,8-19.7,9c-10,1.3-19.2-0.7-27.6-6.5C12.2,90.9,8,86.1,5.1,80.2
				c4.2-3.3,8.5-6.5,12.7-9.8c1.8,4.6,4.4,8.6,8.5,11.5c8.3,5.7,16.9,5.8,25.6,1.1c0.2-0.1,0.5-0.3,0.7-0.4
				C56.8,85.8,60.9,89,65,92.2z"/>
			<path class="st5" d="M65,92.2c-4.1-3.2-8.2-6.4-12.3-9.6c3.6-2.6,6.2-6,7.4-10.4c0.3-1.1,0.2-1.5-1.1-1.5c-6,0.1-12.1,0-18.1,0
				c-1,0-1.3-0.2-1.3-1.3c0.1-4.1,0.1-8.2,0-12.3c0-0.9,0.2-1.3,1.2-1.3c11.4,0,22.7,0,34.1,0c0.8,0,1.2,0.1,1.3,1
				c1.3,11.2-0.2,21.8-7.2,31.1C67.7,89.5,66.5,91,65,92.2z"/>
			<path class="st6" d="M17.9,70.4c-4.2,3.3-8.5,6.5-12.7,9.8c-5.6-11.3-5.6-22.7-0.2-34.1c0.1-0.1,0.2-0.2,0.2-0.3
				c2.8,2.2,5.7,4.3,8.5,6.5c1.4,1.1,2.8,2.2,4.2,3.4C16.3,60.5,16.4,65.4,17.9,70.4z"/>
		</g>
	</g>
</g>
</svg>
