<?xml version="1.0" encoding="utf-8"?>
<!-- Generator: Adobe Illustrator 19.2.0, SVG Export Plug-In . SVG Version: 6.00 Build 0)  -->
<svg version="1.1" xmlns="http://www.w3.org/2000/svg" xmlns:xlink="http://www.w3.org/1999/xlink" x="0px" y="0px"
	 viewBox="0 0 235.4 141.5" style="enable-background:new 0 0 235.4 141.5;" xml:space="preserve">
<style type="text/css">
	.st0{display:none;}
	.st1{display:inline;}
	.st2{fill:none;stroke:#F2CFD0;stroke-width:4;stroke-miterlimit:10;}
	.st3{fill:none;stroke:#F2CFD0;stroke-width:7;stroke-linecap:round;stroke-miterlimit:10;}
	.st4{fill:none;stroke:#F2CFD0;stroke-width:4;stroke-linecap:round;stroke-miterlimit:10;}
</style>
<g id="Layer_1" class="st0">
	<g id="FB9ar7_1_" class="st1">
		
			<image style="overflow:visible;" width="450" height="300" id="FB9ar7_2_" xlink:href="72F2F6749A48E3DE.png"  transform="matrix(1 0 0 1 -107.2112 -2.5441)">
		</image>
	</g>
	<g id="FB9ar7_3_" class="st1">
		
			<image style="overflow:visible;" width="450" height="300" id="FB9ar7_4_" xlink:href="72F2F6749A48E3E2.png"  transform="matrix(1 0 0 1 250.3831 -53.2478)">
		</image>
	</g>
</g>
<g id="Layer_2">
	<path class="st2" d="M181,105.4c-1.1,1.3-29.1,32.7-82.1,32.7S3,107.7,3,70.3S44.1,2.4,98.9,2.4s89.8,31.3,89.8,48.5"/>
	<path class="st2" d="M162.8,73.5L162.8,73.5l-20.3-2.2c-4-0.4-7-4.1-6.5-8.1l1.9-18c0.4-4,4.1-7,8.1-6.5l23.3,2.5
		c4,0.4,7,4.1,6.5,8.1l-1.3,12.1l0,0"/>
	<g>
		<path class="st3" d="M92,32.7c6.1,10.1,9.7,22,9.7,34.8c0,14.6-2.2,28.1-10,39"/>
		<path class="st3" d="M107.9,116.5c9.4-13.1,15-29.3,15-47c0-17-5.2-32.7-14.1-45.6"/>
		<path class="st3" d="M56.9,50.9c3.9,5.6,6.1,12.6,6.1,20c0,6.9-2,13.4-5.3,18.8"/>
		<path class="st3" d="M72.6,96.4c7.9-6.9,10.6-17.3,10.6-28.9c0-9.8-3.6-18.7-9.4-25.4"/>
	</g>
	<path class="st4" d="M232.4,102.9l-30.8-46.6c0,0-2.2-3.8-5.3-5c-1.9-0.7-19.8-0.2-20.6-0.6"/>
	<path class="st4" d="M194.8,72.6l-37.5-21.3c0,0-1-0.7-2.5-0.5s-6.3,4.7-6.5,6.3s0.4,4.1,1.5,5.2c1.2,1.1,36.3,32.4,36.3,32.4
		s2,4.7,3.4,9.5c1.4,4.8,11.3,10.6,17,12"/>
	<path class="st2" d="M164.5,75.4c0,0-5.2-0.6-6.3,2.1c-1,2.5-3,6.3,12.9,15.4c2.4,1.4,5,2.2,7.7,2.4c2.2,0.2,4.8,0.2,7.5-0.2"/>
	<path class="st2" d="M165.3,89.2c0,0-3,1.3-3.4,3.4c-0.4,2.1-1.6,4.7,2.6,7.2c4.3,2.5,9.9,6.3,16.5,5.5c6.6-0.9,7.8-3.6,7.7-4"/>
</g>
</svg>
