<?xml version="1.0" encoding="utf-8"?>
<!-- Generator: Adobe Illustrator 19.2.0, SVG Export Plug-In . SVG Version: 6.00 Build 0)  -->
<svg version="1.1" id="Layer_1" xmlns="http://www.w3.org/2000/svg" xmlns:xlink="http://www.w3.org/1999/xlink" x="0px" y="0px"
	 viewBox="0 0 159.1 73.3" style="enable-background:new 0 0 159.1 73.3;" xml:space="preserve">
<style type="text/css">
	.st0{fill:#D52227;}
</style>
<path class="st0" d="M0.1,50.1c0.2,1.7,2,1.3,2,1.3s1.5-0.1,4.9-0.6c3.4,7.6,9.4,12.6,16.2,12.6c9.5,0,17.4-9.7,18.9-22.5
	c2.5-1.3,3.6-2.3,3.9-2.4c0.6-0.5,0.6-1.2,0.6-1.2l-0.2-6.6c0,0,0.1-3.6-0.1-6.6c-0.3-1.7-2.5-0.9-2.5-0.9s-0.9,0.4-3.7,1.2
	c-3.1-8.6-9.5-14.4-16.9-14.4c-9.3,0-17,9.2-18.8,21.5c-1.7-0.1-2.5-0.2-3-0.1c-1.4,0.3-1.5,1.8-1.5,1.8S-0.1,48.4,0.1,50.1z"/>
<g>
	<path class="st0" d="M69.2,5.2v3.9c-0.7-0.8-1.3-1.4-1.8-1.7C66.8,7.2,66.2,7,65.5,7c-1.1,0-2,0.4-2.8,1.2s-1.1,1.8-1.1,2.9
		c0,1.2,0.4,2.2,1.1,3c0.7,0.8,1.6,1.2,2.7,1.2c0.7,0,1.3-0.2,1.9-0.5c0.5-0.3,1.1-0.9,1.9-1.7v3.9c-1.2,0.6-2.4,0.9-3.6,0.9
		c-2,0-3.6-0.6-5-1.9c-1.3-1.3-2-2.9-2-4.8s0.7-3.5,2-4.8s3-2,5-2C66.8,4.3,68,4.6,69.2,5.2z"/>
	<path class="st0" d="M75,4.7V12c0,2.1,0.8,3.2,2.5,3.2c1.7,0,2.5-1.1,2.5-3.2V4.7h3v7.4c0,1-0.1,1.9-0.4,2.7
		c-0.2,0.7-0.7,1.3-1.3,1.8c-1,0.9-2.3,1.3-3.8,1.3c-1.5,0-2.8-0.4-3.8-1.3c-0.6-0.5-1-1.1-1.3-1.8c-0.2-0.6-0.4-1.5-0.4-2.7V4.7H75
		z"/>
	<path class="st0" d="M94.1,6.9l-2.4,1.3C91.3,7.4,90.8,7,90.3,7c-0.3,0-0.5,0.1-0.7,0.3c-0.2,0.2-0.3,0.4-0.3,0.7
		c0,0.5,0.6,1,1.7,1.5c1.6,0.7,2.6,1.3,3.2,1.9c0.5,0.6,0.8,1.3,0.8,2.3c0,1.2-0.5,2.3-1.4,3.1c-0.9,0.8-2,1.2-3.2,1.2
		c-2.1,0-3.7-1-4.6-3.1l2.5-1.2c0.4,0.6,0.6,1,0.8,1.2c0.4,0.3,0.8,0.5,1.3,0.5c1,0,1.5-0.5,1.5-1.4c0-0.5-0.4-1-1.2-1.5
		c-0.3-0.1-0.6-0.3-0.9-0.4s-0.6-0.3-0.9-0.4c-0.9-0.4-1.5-0.8-1.8-1.3c-0.4-0.5-0.7-1.2-0.7-2.1c0-1.1,0.4-2,1.1-2.8
		c0.8-0.7,1.7-1.1,2.8-1.1C92.1,4.3,93.3,5.2,94.1,6.9z"/>
	<path class="st0" d="M100.7,7.5v10h-3v-10h-1.3V4.7h1.3V0h3v4.7h2.3v2.8H100.7z"/>
	<path class="st0" d="M104.6,11c0-1.8,0.7-3.4,2-4.7s2.9-1.9,4.8-1.9c1.9,0,3.5,0.7,4.9,2c1.3,1.3,2,2.9,2,4.8c0,1.9-0.7,3.5-2,4.8
		c-1.3,1.3-3,1.9-4.9,1.9c-1.9,0-3.5-0.7-4.8-2C105.2,14.6,104.6,13,104.6,11z M107.6,11.1c0,1.3,0.3,2.3,1,3
		c0.7,0.8,1.6,1.1,2.8,1.1c1.2,0,2.1-0.4,2.8-1.1c0.7-0.7,1-1.7,1-3s-0.3-2.2-1-3c-0.7-0.8-1.6-1.1-2.8-1.1c-1.1,0-2,0.4-2.7,1.1
		C107.9,8.9,107.6,9.9,107.6,11.1z"/>
	<path class="st0" d="M121.4,4.7h3v1.2c0.6-0.6,1.1-1,1.5-1.2c0.4-0.2,1-0.3,1.6-0.3c1.4,0,2.6,0.6,3.4,1.9c0.9-1.3,2.2-1.9,3.8-1.9
		c2.9,0,4.3,1.7,4.3,5.2v7.9h-3v-7.1c0-1.2-0.1-2.1-0.4-2.6C135.2,7.3,134.7,7,134,7c-0.8,0-1.4,0.3-1.8,0.9c-0.4,0.6-0.6,1.6-0.6,3
		v6.6h-3v-7.1c0-2.3-0.7-3.4-2-3.4c-0.8,0-1.4,0.3-1.8,0.9c-0.4,0.6-0.6,1.6-0.6,2.9v6.6h-3V4.7z"/>
	<path class="st0" d="M150.1,6.9l-2.4,1.3c-0.4-0.8-0.9-1.2-1.4-1.2c-0.3,0-0.5,0.1-0.7,0.3c-0.2,0.2-0.3,0.4-0.3,0.7
		c0,0.5,0.6,1,1.7,1.5c1.6,0.7,2.6,1.3,3.2,1.9c0.5,0.6,0.8,1.3,0.8,2.3c0,1.2-0.5,2.3-1.4,3.1c-0.9,0.8-2,1.2-3.2,1.2
		c-2.1,0-3.7-1-4.6-3.1l2.5-1.2c0.4,0.6,0.6,1,0.8,1.2c0.4,0.3,0.8,0.5,1.3,0.5c1,0,1.5-0.5,1.5-1.4c0-0.5-0.4-1-1.2-1.5
		c-0.3-0.1-0.6-0.3-0.9-0.4c-0.3-0.1-0.6-0.3-0.9-0.4c-0.9-0.4-1.5-0.8-1.8-1.3c-0.4-0.5-0.7-1.2-0.7-2.1c0-1.1,0.4-2,1.1-2.8
		c0.8-0.7,1.7-1.1,2.8-1.1C148.1,4.3,149.3,5.2,150.1,6.9z"/>
</g>
<g>
	<path class="st0" d="M94.8,24.8v8c0.9-0.9,1.9-1.4,3-1.4c1.3,0,2.3,0.5,3.2,1.4c0.8,0.9,1.3,2.1,1.3,3.5c0,1.4-0.4,2.6-1.3,3.6
		c-0.8,0.9-1.9,1.4-3.2,1.4c-1.1,0-2.1-0.4-2.9-1.3v1h-2.2V24.8H94.8z M99.9,36.5c0-0.9-0.2-1.6-0.7-2.2c-0.5-0.6-1.1-0.9-1.9-0.9
		c-0.8,0-1.4,0.3-2,0.8c-0.5,0.6-0.7,1.3-0.7,2.2c0,0.9,0.2,1.6,0.7,2.2c0.5,0.6,1.1,0.8,1.9,0.8c0.8,0,1.4-0.3,1.9-0.8
		C99.7,38.1,99.9,37.4,99.9,36.5z"/>
	<path class="st0" d="M107.1,39.4l-4.2-7.7h2.5l2.9,5.4l2.7-5.4h2.5l-7.5,14.5h-2.5L107.1,39.4z"/>
</g>
<g>
	<path class="st0" d="M66.9,55.7L64.5,57c-0.4-0.8-0.9-1.2-1.4-1.2c-0.3,0-0.5,0.1-0.7,0.3c-0.2,0.2-0.3,0.4-0.3,0.7
		c0,0.5,0.6,1,1.7,1.5c1.6,0.7,2.6,1.3,3.2,1.9c0.5,0.6,0.8,1.3,0.8,2.3c0,1.2-0.5,2.3-1.4,3.1c-0.9,0.8-2,1.2-3.2,1.2
		c-2.1,0-3.7-1-4.6-3.1l2.5-1.2c0.4,0.6,0.6,1,0.8,1.2c0.4,0.3,0.8,0.5,1.3,0.5c1,0,1.5-0.5,1.5-1.4c0-0.5-0.4-1-1.2-1.5
		c-0.3-0.1-0.6-0.3-0.9-0.4s-0.6-0.3-0.9-0.4c-0.9-0.4-1.5-0.8-1.8-1.3c-0.4-0.5-0.7-1.2-0.7-2.1c0-1.1,0.4-2,1.1-2.8
		c0.8-0.7,1.7-1.1,2.8-1.1C64.9,53.2,66.1,54.1,66.9,55.7z"/>
	<path class="st0" d="M73.4,53.6v7.4c0,2.1,0.8,3.2,2.5,3.2c1.7,0,2.5-1.1,2.5-3.2v-7.4h3V61c0,1-0.1,1.9-0.4,2.7
		c-0.2,0.7-0.7,1.3-1.3,1.8c-1,0.9-2.3,1.3-3.8,1.3c-1.5,0-2.8-0.4-3.8-1.3c-0.6-0.5-1-1.1-1.3-1.8c-0.2-0.6-0.4-1.5-0.4-2.7v-7.4
		H73.4z"/>
	<path class="st0" d="M88.1,73.3h-3V53.6h3V55c1.2-1.2,2.5-1.7,4-1.7c1.8,0,3.2,0.6,4.4,1.9c1.2,1.3,1.7,2.9,1.7,4.9
		c0,1.9-0.6,3.5-1.7,4.8c-1.1,1.3-2.6,1.9-4.3,1.9c-1.5,0-2.8-0.6-4-1.8V73.3z M95.1,60c0-1.2-0.3-2.2-1-3c-0.7-0.8-1.5-1.2-2.6-1.2
		c-1.1,0-2,0.4-2.6,1.1c-0.7,0.8-1,1.7-1,3c0,1.2,0.3,2.2,1,3c0.7,0.8,1.5,1.1,2.6,1.1c1,0,1.9-0.4,2.5-1.2
		C94.8,62.2,95.1,61.2,95.1,60z"/>
	<path class="st0" d="M101.2,53.6h3v1.1c0.5-0.6,1-1,1.4-1.2c0.4-0.2,0.9-0.3,1.5-0.3c0.8,0,1.6,0.3,2.4,0.8l-1.4,2.7
		c-0.6-0.4-1.1-0.6-1.6-0.6c-1.6,0-2.4,1.2-2.4,3.7v6.6h-3V53.6z"/>
	<path class="st0" d="M122.8,60.7h-9.2c0.1,1.1,0.4,1.9,1,2.5c0.6,0.6,1.4,0.9,2.3,0.9c0.7,0,1.3-0.2,1.8-0.5c0.5-0.4,1-1,1.6-1.9
		l2.5,1.4c-0.4,0.7-0.8,1.2-1.2,1.7c-0.4,0.5-0.9,0.9-1.4,1.2c-0.5,0.3-1,0.5-1.6,0.7c-0.6,0.1-1.2,0.2-1.9,0.2
		c-1.9,0-3.4-0.6-4.6-1.8c-1.2-1.2-1.7-2.9-1.7-4.9c0-2,0.6-3.7,1.7-4.9c1.1-1.2,2.6-1.9,4.5-1.9c1.9,0,3.4,0.6,4.5,1.8
		c1.1,1.2,1.6,2.8,1.6,5L122.8,60.7z M119.8,58.2c-0.4-1.6-1.4-2.4-3-2.4c-0.4,0-0.7,0.1-1,0.2c-0.3,0.1-0.6,0.3-0.9,0.5
		c-0.3,0.2-0.5,0.5-0.7,0.7c-0.2,0.3-0.3,0.6-0.4,1H119.8z"/>
	<path class="st0" d="M126,53.6h3v1.2c0.6-0.6,1.1-1,1.5-1.2c0.4-0.2,1-0.3,1.6-0.3c1.4,0,2.6,0.6,3.4,1.9c0.9-1.3,2.2-1.9,3.8-1.9
		c2.9,0,4.3,1.7,4.3,5.2v7.9h-3v-7.1c0-1.2-0.1-2.1-0.4-2.6c-0.3-0.5-0.8-0.8-1.5-0.8c-0.8,0-1.4,0.3-1.8,0.9
		c-0.4,0.6-0.6,1.6-0.6,3v6.6h-3v-7.1c0-2.3-0.7-3.4-2-3.4c-0.8,0-1.4,0.3-1.8,0.9s-0.6,1.6-0.6,2.9v6.6h-3V53.6z"/>
	<path class="st0" d="M159,60.7h-9.2c0.1,1.1,0.4,1.9,1,2.5c0.6,0.6,1.4,0.9,2.3,0.9c0.7,0,1.3-0.2,1.8-0.5c0.5-0.4,1-1,1.6-1.9
		l2.5,1.4c-0.4,0.7-0.8,1.2-1.2,1.7s-0.9,0.9-1.4,1.2c-0.5,0.3-1,0.5-1.6,0.7c-0.6,0.1-1.2,0.2-1.9,0.2c-1.9,0-3.4-0.6-4.6-1.8
		c-1.2-1.2-1.7-2.9-1.7-4.9c0-2,0.6-3.7,1.7-4.9c1.1-1.2,2.6-1.9,4.5-1.9c1.9,0,3.4,0.6,4.5,1.8c1.1,1.2,1.6,2.8,1.6,5L159,60.7z
		 M156,58.2c-0.4-1.6-1.4-2.4-3-2.4c-0.4,0-0.7,0.1-1,0.2c-0.3,0.1-0.6,0.3-0.9,0.5s-0.5,0.5-0.7,0.7s-0.3,0.6-0.4,1H156z"/>
</g>
</svg>
