<?xml version="1.0" encoding="utf-8"?>
<!-- Generator: Adobe Illustrator 22.0.1, SVG Export Plug-In . SVG Version: 6.00 Build 0)  -->
<svg version="1.1" id="Layer_1" xmlns="http://www.w3.org/2000/svg" xmlns:xlink="http://www.w3.org/1999/xlink" x="0px" y="0px"
	 viewBox="0 0 87.5 101" style="enable-background:new 0 0 87.5 101;" xml:space="preserve">
<style type="text/css">
	.st0{fill:#D52227;}
</style>
<path class="st0" d="M0.4,75.4c0.3,3.1,3.8,2.5,3.8,2.5s2.7-0.2,9.1-1.2c6.3,14.1,17.5,23.5,30.2,23.5c17.7,0,32.4-18.1,35.1-41.8
	c4.6-2.4,6.7-4.2,7.2-4.5c1.2-0.9,1.1-2.3,1.1-2.3l-0.3-12.3c0,0,0.1-6.7-0.1-12.2c-0.6-3.2-4.7-1.7-4.7-1.7s-1.6,0.7-6.8,2.2
	c-5.8-16-17.7-26.8-31.4-26.8C26.4,0.8,12,17.9,8.7,40.7c-3.1-0.1-4.6-0.3-5.6-0.1C0.5,41.2,0.4,44,0.4,44S0.1,72.3,0.4,75.4z"/>
</svg>
